# xmcd
#
# Track frame offsets: 
#        150
#        24523
#        44831
#        68690
#        92286
#        107788
#        128229
#        150325
#        166941
#        169499
#        188051
#        194962
#        211239
#        232659
#        249155
#        273509
#
# Disc length: 3901 seconds
#
# Revision: 0
# Processed by: cddbd v1.5.2PL0 Copyright (c) Steve Scherf et al.
# Submitted via: ExactAudioCopyFreeDBPlugin 1.0
#
DISCID=d50f3b10
DTITLE=Tech N9ne - Killer [CD2]
DYEAR=2008
DGENRE=Rap
TTITLE0=I Love You But Fuck You
TTITLE1=One Good Time
TTITLE2=Drill Team
TTITLE3=Beat You Up
TTITLE4=Let's Go
TTITLE5=Why You Ain't Call Me
TTITLE6=Seven Words
TTITLE7=The Sexorcist
TTITLE8=Killa Call
TTITLE9=Enjoy
TTITLE10=Elbow Macaroni
TTITLE11=I Am Everything
TTITLE12=Happy Ending
TTITLE13=Can't Shake It
TTITLE14=Holier Than Thou
TTITLE15=Last Words
EXTD=
EXTT0=
EXTT1=
EXTT2=
EXTT3=
EXTT4=
EXTT5=
EXTT6=
EXTT7=
EXTT8=
EXTT9=
EXTT10=
EXTT11=
EXTT12=
EXTT13=
EXTT14=
EXTT15=
PLAYORDER=
